<?xml version="1.0" encoding="UTF-8"?>
<svg id="Layer_2" data-name="Layer 2" xmlns="http://www.w3.org/2000/svg" viewBox="0 0 367.08 364.03">
  <defs>
    <style>
      .cls-1 {
        fill: #1c1d1d;
      }
    </style>
  </defs>
  <g id="Layer_1-2" data-name="Layer 1">
    <path class="cls-1" d="M78.39,241.23c-17.17,7.21-26.92,24.35-23.9,42.61s24.34,29.2,42.15,25.62c8.22-1.61,15.39-5.17,21.92-10.39,7.4-5.8,13.04-12.94,18.38-20.68,15.97,8.68,30.61,18.03,46.04,27.92-19.14,30.68-49.19,54.61-86.32,57.47C47.07,367.47,2.24,332.54.09,281.62c-1.57-37.01,18.4-71.03,51.59-87.32,37.53-18.87,72.54-11.51,109.32,5.86.13-24.73-4.76-47.9-12.45-70.82-11.9-34.28-29.04-66.01-51.03-95.61L139.63,0c22.87,30.3,40.96,62.75,54.73,97.5,16.26,42.24,24.87,86.76,18.12,132.18l36.28,23.21c12.32,7.88,24.28,15.06,37.11,22.08,13.07,7.03,25.88,13.23,39.92,18.07,13.49,4.76,27,7.48,41.29,7.93l-.17,53.8c-18.52-.16-35.83-3.44-53.08-8.9-15.34-4.89-29.47-11.07-43.82-18.33-16.44-8.39-31.83-17.39-47.41-27.32l-45.17-28.79c-19.72-12.57-46.01-27.9-68.58-32.95-10.55-2.36-20.23-1.52-30.45,2.78Z"/>
  </g>
</svg>